<svg viewBox="0 0 575 575" class="roots-wrapper"><g transform="rotate(0 0 0)"><svg viewBoxSize="575" data-root-id="4872422990324" xmlns="http://www.w3.org/2000/svg" xmlns:xlink="http://www.w3.org/1999/xlink" version="1.1" id="Layer_1" x="57.9824" y="203.079" viewBox="510.6000061035156 417.3000183105469 63.604522705078125 64.20001220703125" xml:space="preserve" height="168.84172793248004" width="167.2756585842437" preserveAspectRatio="xMinYMin" zoom="1" editorType="buyer" data-layer-role="icon" style="position: absolute; height: 168.842px; width: 167.276px; top: 203.079px; left: 57.9824px;"><linearGradient id="SVGID_1_" gradientUnits="userSpaceOnUse" x1="522.0273" y1="420.8189" x2="563.0923" y2="483.8591" name="Layer %{number}" zoom="1" data-layer-id="6337193290325"><stop offset="0" style="stop-color: rgb(77, 246, 131);"></stop><stop offset="1" style="stop-color: rgb(41, 134, 144);"></stop></linearGradient><path class="st0" d="M570.9,444.7c-2.7-10.4-10.9-18.6-21.4-21.1v-6.3c-14.9,0-27.7,8.9-33.3,21.7c-0.9,1.8-1.6,3.7-2.2,5.7  c-1.9,0-3.4,1.6-3.4,3.4v8.1c0,1.9,1.5,3.4,3.4,3.5c3.4,12.5,14.8,21.8,28.4,21.8s25-9.2,28.4-21.8c1.9,0,3.4-1.6,3.4-3.5v-8.1  C574.3,446.2,572.7,444.7,570.9,444.7z" name="Layer %{number}" zoom="1" data-layer-id="9209026390325" style="fill: url(&quot;#SVGID_1_&quot;);"></path><path class="st1" d="M564.6,457.4c0,6.4-5.2,11.6-11.6,11.6h-21.1c-6.4,0-11.6-5.2-11.6-11.6v-10.6c0-6.4,5.2-11.6,11.6-11.6H553  c6.4,0,11.6,5.2,11.6,11.6V457.4z" name="Layer %{number}" zoom="1" data-layer-id="6656118490325" style="fill: rgb(255, 255, 255);"></path><linearGradient id="SVGID_00000005239645297329574530000001775218285491284120_" gradientUnits="userSpaceOnUse" x1="514.6534" y1="425.6223" x2="555.7184" y2="488.6626" name="Layer %{number}" zoom="1" data-layer-id="5687721490325"><stop offset="0" style="stop-color: rgb(77, 246, 131);"></stop><stop offset="1" style="stop-color: rgb(41, 134, 144);"></stop></linearGradient><path d="M531.9,444.7c-0.5,0-0.9,0.1-1.3,0.3  c0.8,0.4,1.3,1.2,1.3,2.2c0,1.3-1.1,2.4-2.4,2.4c-0.4,0-0.7-0.1-1-0.2v6.9c0,1.9,1.5,3.5,3.5,3.5c1.9,0,3.5-1.5,3.5-3.5v-8.1  C535.4,446.2,533.8,444.7,531.9,444.7z" name="Layer %{number}" zoom="1" data-layer-id="0444272290325" style="fill: url(&quot;#SVGID_00000005239645297329574530000001775218285491284120_&quot;);"></path><linearGradient id="SVGID_00000015349527938222834520000000726631559324444859_" gradientUnits="userSpaceOnUse" x1="529.3918" y1="416.0216" x2="570.4568" y2="479.0618" name="Layer %{number}" zoom="1" data-layer-id="6038791190325"><stop offset="0" style="stop-color: rgb(77, 246, 131);"></stop><stop offset="1" style="stop-color: rgb(41, 134, 144);"></stop></linearGradient><path d="M552.9,444.7c-0.5,0-0.9,0.1-1.3,0.3  c0.8,0.4,1.3,1.2,1.3,2.2c0,1.3-1.1,2.4-2.4,2.4c-0.4,0-0.7-0.1-1-0.2v6.9c0,1.9,1.5,3.5,3.5,3.5c1.9,0,3.5-1.5,3.5-3.5v-8.1  C556.4,446.2,554.8,444.7,552.9,444.7z" name="Layer %{number}" zoom="1" data-layer-id="1038939690325" style="fill: url(&quot;#SVGID_00000015349527938222834520000000726631559324444859_&quot;);"></path></svg></g><g transform="rotate(0 0 0)"><svg viewBoxSize="575" data-root-id="9607067790326" xmlns="http://www.w3.org/2000/svg" y="251.055" viewBox="7.940000057220459 17.31999969482422 163.00999450683594 72.88999938964844" x="258.965" height="72.88999938964844" width="163.00999450683594" fontUrl="https://fonts.gstatic.com/s/ubuntu/v20/4iCv6KVjbNBYlgoCjC3Tt2aMH4V_gg.ttf" zoom="1" editorType="buyer" data-layer-role="brandName" style="position: absolute; top: 251.055px; width: 163.01px; height: 72.89px; left: 258.965px;"><g data-horizontal-grow="center" zoom="1" root="[object Object]" style="fill: rgb(0, 68, 35); fill-opacity: 1;"><path d="M19.99 32.91L19.99 79.21Q21.05 79.30 22.77 79.35Q24.49 79.40 27.46 79.40L27.46 79.40Q39.60 79.40 45.58 73.23Q51.56 67.06 51.56 55.96L51.56 55.96Q51.56 44.67 45.73 38.65Q39.89 32.62 27.65 32.62L27.65 32.62Q22.29 32.62 19.99 32.91L19.99 32.91ZM64.19 55.96L64.19 55.96Q64.19 64.57 61.51 70.93Q58.83 77.30 53.91 81.55Q48.98 85.81 42.04 87.87Q35.11 89.92 26.69 89.92L26.69 89.92Q22.67 89.92 17.60 89.59Q12.53 89.25 7.94 88.20L7.94 88.20L7.94 23.82Q12.53 22.77 17.70 22.48Q22.86 22.19 26.88 22.19L26.88 22.19Q35.20 22.19 42.09 24.15Q48.98 26.12 53.91 30.28Q58.83 34.44 61.51 40.80Q64.19 47.16 64.19 55.96ZM71.65 67.16L71.65 56.54L97.38 56.54L97.38 67.16L71.65 67.16ZM124.55 81.03L124.55 81.03Q129.91 81.03 132.68 80.45L132.68 80.45L132.68 67.63Q131.73 67.35 129.91 67.06Q128.09 66.77 125.89 66.77L125.89 66.77Q123.98 66.77 122.02 67.06Q120.06 67.35 118.48 68.11Q116.90 68.88 115.94 70.26Q114.99 71.65 114.99 73.76L114.99 73.76Q114.99 77.87 117.57 79.45Q120.15 81.03 124.55 81.03ZM123.60 37.88L123.60 37.88Q129.34 37.88 133.26 39.32Q137.18 40.75 139.52 43.34Q141.87 45.92 142.87 49.60Q143.88 53.28 143.88 57.68L143.88 57.68L143.88 88.01Q141.20 88.58 135.79 89.40Q130.39 90.21 123.60 90.21L123.60 90.21Q119.10 90.21 115.37 89.35Q111.64 88.49 109.01 86.58Q106.38 84.66 104.89 81.60Q103.41 78.54 103.41 74.04L103.41 74.04Q103.41 69.74 105.09 66.77Q106.76 63.81 109.63 61.94Q112.50 60.08 116.28 59.26Q120.06 58.45 124.17 58.45L124.17 58.45Q126.08 58.45 128.19 58.69Q130.29 58.93 132.68 59.50L132.68 59.50L132.68 57.59Q132.68 55.58 132.21 53.76Q131.73 51.95 130.53 50.56Q129.34 49.17 127.38 48.41Q125.41 47.64 122.45 47.64L122.45 47.64Q118.43 47.64 115.08 48.21Q111.73 48.79 109.63 49.55L109.63 49.55L108.19 40.18Q110.40 39.41 114.60 38.65Q118.81 37.88 123.60 37.88ZM169.71 39.13L169.71 89.16L158.13 89.16L158.13 39.13L169.71 39.13ZM170.95 24.49L170.95 24.49Q170.95 27.74 168.85 29.66Q166.74 31.57 163.87 31.57L163.87 31.57Q160.91 31.57 158.80 29.66Q156.70 27.74 156.70 24.49L156.70 24.49Q156.70 21.14 158.80 19.23Q160.91 17.32 163.87 17.32L163.87 17.32Q166.74 17.32 168.85 19.23Q170.95 21.14 170.95 24.49Z" transform="translate(0, 0)"></path></g></svg></g></svg>