<svg viewBox="0 0 575 575" class="roots-wrapper"><g transform="rotate(360 287.5 250.7204481906713)"><svg viewBoxSize="575" data-root-id="5665063507209" xmlns="http://www.w3.org/2000/svg" xmlns:xlink="http://www.w3.org/1999/xlink" version="1.1" id="Layer_1" x="198.5" y="190.53599114990234" viewBox="620.2379760742188 929.8629760742188 3804.004150390625 2572.380859375" enable-background="new 0 0 5000.003 5000.003" xml:space="preserve" height="120.36891408153794" width="178" preserveAspectRatio="xMinYMin" zoom="1" editorType="buyer" data-layer-role="icon" style="position: absolute; height: 120.369px; width: 178px; top: 190.536px; left: 198.5px; transform: rotate(360deg);"><polygon id="_2260459019936" fill="#FF6501" points="4075.769,3371.89 4424.242,3085.164 3901.951,2562.429 3901.951,2101.471 3717.458,1824.541     4219.339,1076.434 3225.396,1435.162 3175.128,929.863 2231.473,1548.06 1646.54,1937.873 1975.438,2111.687 1470.592,2812.507     2661.769,2623.777 2197.816,3287.111 2774.654,3207.859   " name="Layer %{number}" zoom="1" data-layer-id="5984152407217" style="fill: rgb(255, 101, 1);"></polygon><polygon id="_2260459019936" fill="#8D3601" points="1975.438,2111.687 2413.815,1766.617 2310.71,1496.076 2231.473,1548.06 1646.54,1937.873   " name="Layer %{number}" zoom="1" data-layer-id="2712778607221" style="fill: rgb(141, 54, 1);"></polygon><polygon id="_2260459019936" fill="#4E2200" points="2413.815,1766.617 3146.593,1866.732 2703.095,1238.742 2310.71,1496.076   " name="Layer %{number}" zoom="1" data-layer-id="2704703407224" style="fill: rgb(78, 34, 0);"></polygon><polygon id="_2260459019936" points="2703.095,1238.742 3146.593,1866.732 3175.128,929.863   " name="Layer %{number}" zoom="1" data-layer-id="3405034407229"></polygon><polygon id="_2260459019936" points="3225.396,1435.162 3471.22,1629.854 4219.339,1076.434   " name="Layer %{number}" zoom="1" data-layer-id="0072997507232"></polygon><polygon id="_2260459019936" fill="#D0D0D0" points="4219.339,1076.434 3471.22,1629.854 3717.458,1824.541   " name="Layer %{number}" zoom="1" data-layer-id="1139251707236" style="fill: rgb(208, 208, 208);"></polygon><polygon id="_2260459019936" fill="#CACACA" points="3307.205,1658.391 3175.128,929.863 3146.593,1866.732   " name="Layer %{number}" zoom="1" data-layer-id="1842401307239" style="fill: rgb(202, 202, 202);"></polygon><polygon id="_2260459019936" fill="#BB4D02" points="3273.542,1473.501 3307.205,1658.391 3717.458,1824.541 3471.22,1629.854   " name="Layer %{number}" zoom="1" data-layer-id="0525863707244" style="fill: rgb(187, 77, 2);"></polygon><polygon id="_2260459019936" fill="#FF9451" points="3717.458,1824.541 3307.205,1658.391 3146.593,1866.732 3563.24,2152.17 3901.951,2101.471   " name="Layer %{number}" zoom="1" data-layer-id="1192482207247" style="fill: rgb(255, 148, 81);"></polygon><polygon id="_2260459019936" fill="#8D3601" points="3901.951,2101.471 3563.24,2152.17 3901.951,2562.429   " name="Layer %{number}" zoom="1" data-layer-id="6706223607251" style="fill: rgb(141, 54, 1);"></polygon><polygon id="_2260459019936" fill="#FB6506" points="3563.24,2152.17 3146.593,1866.732 2413.815,1766.617 1975.438,2111.687 2634.07,2145.349     3293.138,2179.423   " name="Layer %{number}" zoom="1" data-layer-id="4780937807254" style="fill: rgb(251, 101, 6);"></polygon><polygon id="_2260459019936" fill="#D85605" points="3216.037,2187.101 2634.07,2145.349 3038.804,2507.052 3732.376,2357.512   " name="Layer %{number}" zoom="1" data-layer-id="6695243307258" style="fill: rgb(216, 86, 5);"></polygon><polygon id="_2260459019936" fill="#C64E02" points="1246.496,2851.275 2634.07,2145.349 1975.438,2111.687   " name="Layer %{number}" zoom="1" data-layer-id="3443470507262" style="fill: rgb(198, 78, 2);"></polygon><polygon id="_2260459019936" fill="#8C3603" points="2634.07,2145.349 1246.496,2851.275 2661.769,2623.777 3038.804,2507.052   " name="Layer %{number}" zoom="1" data-layer-id="0611491507266" style="fill: rgb(140, 54, 3);"></polygon><polygon id="_2260459019936" fill="#D0D0D0" points="2661.769,2623.777 2197.816,3287.111 3069.476,2877.693   " name="Layer %{number}" zoom="1" data-layer-id="4037209607269" style="fill: rgb(208, 208, 208);"></polygon><polygon id="_2260459019936" fill="#333333" points="3069.476,2877.693 2197.816,3287.111 2774.654,3207.859 4075.769,3371.89 4183.974,3282.841     4133.265,3022.964   " name="Layer %{number}" zoom="1" data-layer-id="3607024307273" style="fill: rgb(51, 51, 51);"></polygon><polygon id="_2260459019936" fill="#EDE4DF" points="2661.769,2623.777 3069.476,2877.693 4133.265,3022.964 3038.804,2507.052   " name="Layer %{number}" zoom="1" data-layer-id="7859640207277" style="fill: rgb(237, 228, 223);"></polygon><polygon id="_2260459019936" fill="#F89456" points="3038.804,2507.052 4133.265,3022.964 4272.164,2932.646 3901.951,2562.429 3732.376,2357.512       " name="Layer %{number}" zoom="1" data-layer-id="3620925407281" style="fill: rgb(248, 148, 86);"></polygon><polygon id="_2260459019936" points="4133.265,3022.964 4183.974,3282.841 4424.242,3085.164 4272.164,2932.646   " name="Layer %{number}" zoom="1" data-layer-id="0646780907285"></polygon><polygon id="_2260459019936" points="3216.037,2187.101 3732.376,2357.512 3563.24,2152.17   " name="Layer %{number}" zoom="1" data-layer-id="4377844607291"></polygon><polygon id="_2260459019936" fill="#4D4D4D" points="620.238,2070.799 1496.158,2290.62 982.783,2603.332   " name="Layer %{number}" zoom="1" data-layer-id="6389199807296" style="fill: rgb(77, 77, 77);"></polygon><polygon id="_2260459019936" fill="#D0D0D0" points="1474.846,3123.935 2250.217,2923.287 1706.186,3502.244   " name="Layer %{number}" zoom="1" data-layer-id="9301121307300" style="fill: rgb(208, 208, 208);"></polygon><polygon id="_2260459019936" fill="#C64E02" points="689.683,2792.914 1075.658,2899.839 695.221,3014.455   " name="Layer %{number}" zoom="1" data-layer-id="0696282407303" style="fill: rgb(198, 78, 2);"></polygon><polygon id="_2260459019936" fill="#FB6506" points="822.176,1476.904 1347.463,1786.207 742.935,1804.951   " name="Layer %{number}" zoom="1" data-layer-id="7774465907307" style="fill: rgb(251, 101, 6);"></polygon><polygon id="_2260459019936" fill="#C64E02" points="1068.847,3253.021 1298.465,3230.021 1184.298,3442.185   " name="Layer %{number}" zoom="1" data-layer-id="9471549107310" style="fill: rgb(198, 78, 2);"></polygon><polygon id="_2260459019936" fill="#C64E02" points="1469.741,1470.943 1699.359,1447.944 1585.61,1660.107   " name="Layer %{number}" zoom="1" data-layer-id="6255594507314" style="fill: rgb(198, 78, 2);"></polygon></svg></g><g transform="rotate(0 0 0)"><svg viewBoxSize="575" data-root-id="7536510307328" xmlns="http://www.w3.org/2000/svg" y="370.40499114990234" viewBox="0.18000000715255737 4.659999847412109 379.010009765625 14.059032440185547" x="97.99499237060547" height="14.059032440185547" width="379.010009765625" fontUrl="https://fonts.gstatic.com/s/goldman/v19/pe0uMIWbN4JFplR2LDJ4Bt-7G98.ttf" zoom="1" editorType="buyer" data-layer-role="slogan" style="position: absolute; top: 370.405px; width: 379.01px; height: 14.059px; left: 97.995px;"><g data-horizontal-grow="center" zoom="1" root="[object Object]" style="fill: rgb(0, 0, 0);"><path d="M7.79 16.20L5.42 16.20L5.42 11.81L0.18 5.62L3.06 5.62L5.72 8.98L6.55 10.10L6.73 10.10L7.56 8.98L10.22 5.62L13.10 5.62L12.40 6.70L7.79 11.88L7.79 16.20ZM21.71 16.20L16.74 16.20Q15.53 16.20 14.95 15.71Q14.36 15.23 14.36 14.13L14.36 14.13L14.36 10.44Q14.36 10.17 14.41 9.78Q14.45 9.40 14.66 9.02Q14.87 8.64 15.36 8.39Q15.86 8.14 16.74 8.14L16.74 8.14L21.71 8.14Q22.61 8.14 23.09 8.39Q23.58 8.64 23.79 9.02Q23.99 9.40 24.04 9.78Q24.08 10.17 24.08 10.44L24.08 10.44L24.08 13.90Q24.08 14.22 24.04 14.62Q23.99 15.01 23.78 15.37Q23.56 15.73 23.08 15.97Q22.59 16.20 21.71 16.20L21.71 16.20ZM17.42 14.65L17.42 14.65L21.02 14.65Q21.91 14.65 21.91 13.93L21.91 13.93L21.91 10.40Q21.91 9.68 21.02 9.68L21.02 9.68L17.42 9.68Q16.56 9.68 16.56 10.40L16.56 10.40L16.56 13.93Q16.56 14.65 17.42 14.65ZM31.16 16.20L30.24 16.20Q29.36 16.20 28.86 15.97Q28.37 15.73 28.16 15.37Q27.95 15.01 27.91 14.62Q27.86 14.22 27.86 13.90L27.86 13.90L27.86 8.14L30.06 8.14L30.06 13.93Q30.04 14.33 30.32 14.49Q30.60 14.65 30.92 14.65L30.92 14.65L34.49 14.65Q34.88 14.65 34.96 14.58Q35.03 14.51 35.03 14.11L35.03 14.11L35.03 8.14L37.22 8.14L37.22 16.20L35.75 16.20L35.06 15.84Q34.34 15.98 33.36 16.09Q32.38 16.20 31.16 16.20L31.16 16.20ZM43.38 16.20L41.18 16.20L41.18 8.14L42.66 8.14L43.34 8.50Q43.81 8.24 44.35 8.10Q44.89 7.96 45.72 7.96L45.72 7.96Q47.03 7.96 47.85 8.24Q48.67 8.53 48.94 8.68L48.94 8.68L48.31 10.24Q48.10 10.13 47.60 9.96Q47.11 9.79 46.44 9.65Q45.77 9.50 44.98 9.50L44.98 9.50L44.78 9.50Q43.92 9.50 43.66 9.85Q43.40 10.19 43.38 10.98L43.38 10.98L43.38 16.20ZM64.76 16.20L61.88 16.20L56.86 5.63L59.38 5.63L62.77 12.92L63.25 14.22L63.41 14.22L63.88 12.92L67.30 5.63L69.75 5.63L69.46 6.71L64.76 16.20ZM73.73 7.00L73.73 7.00Q73.06 7.00 72.76 6.73Q72.45 6.46 72.45 5.83L72.45 5.83Q72.45 5.18 72.75 4.92Q73.04 4.66 73.73 4.66L73.73 4.66Q74.41 4.66 74.72 4.92Q75.02 5.18 75.02 5.83L75.02 5.83Q75.02 6.44 74.72 6.72Q74.41 7.00 73.73 7.00ZM74.83 16.20L72.63 16.20L72.63 8.14L74.83 8.14L74.83 16.20ZM86.11 16.20L81.02 16.20Q79.81 16.20 79.31 16.07Q78.80 15.95 78.80 15.82L78.80 15.82L79.34 14.47Q79.87 14.53 81.26 14.59Q82.66 14.65 84.71 14.65L84.71 14.65L85.61 14.65Q86.06 14.65 86.17 14.41Q86.29 14.17 86.29 13.75L86.29 13.75Q86.29 13.34 86.16 13.09Q86.02 12.83 85.61 12.83L85.61 12.83L81.18 12.83Q79.92 12.83 79.36 12.36Q78.80 11.88 78.80 10.93L78.80 10.93L78.80 10.21Q78.80 9.95 78.86 9.61Q78.91 9.27 79.13 8.93Q79.34 8.59 79.83 8.36Q80.32 8.14 81.18 8.14L81.18 8.14L86.15 8.14Q87.23 8.14 87.68 8.26Q88.13 8.39 88.13 8.51L88.13 8.51L87.95 9.86Q87.43 9.81 86.02 9.75Q84.62 9.68 82.58 9.68L82.58 9.68L81.68 9.68Q81.23 9.68 81.12 9.93Q81.00 10.17 81.00 10.49L81.00 10.49Q81.00 10.84 81.12 11.06Q81.23 11.29 81.68 11.29L81.68 11.29L86.11 11.29Q87.34 11.29 87.91 11.79Q88.49 12.29 88.49 13.07L88.49 13.07L88.49 14.13Q88.49 14.45 88.44 14.81Q88.40 15.17 88.18 15.49Q87.97 15.80 87.48 16.00Q86.99 16.20 86.11 16.20L86.11 16.20ZM93.55 7.00L93.55 7.00Q92.88 7.00 92.57 6.73Q92.27 6.46 92.27 5.83L92.27 5.83Q92.27 5.18 92.56 4.92Q92.86 4.66 93.55 4.66L93.55 4.66Q94.23 4.66 94.54 4.92Q94.84 5.18 94.84 5.83L94.84 5.83Q94.84 6.44 94.54 6.72Q94.23 7.00 93.55 7.00ZM94.64 16.20L92.45 16.20L92.45 8.14L94.64 8.14L94.64 16.20ZM105.97 16.20L101.00 16.20Q99.79 16.20 99.21 15.71Q98.62 15.23 98.62 14.13L98.62 14.13L98.62 10.44Q98.62 10.17 98.67 9.78Q98.71 9.40 98.92 9.02Q99.13 8.64 99.62 8.39Q100.12 8.14 101.00 8.14L101.00 8.14L105.97 8.14Q106.87 8.14 107.35 8.39Q107.84 8.64 108.04 9.02Q108.25 9.40 108.30 9.78Q108.34 10.17 108.34 10.44L108.34 10.44L108.34 13.90Q108.34 14.22 108.30 14.62Q108.25 15.01 108.04 15.37Q107.82 15.73 107.33 15.97Q106.85 16.20 105.97 16.20L105.97 16.20ZM101.68 14.65L101.68 14.65L105.28 14.65Q106.16 14.65 106.16 13.93L106.16 13.93L106.16 10.40Q106.16 9.68 105.28 9.68L105.28 9.68L101.68 9.68Q100.82 9.68 100.82 10.40L100.82 10.40L100.82 13.93Q100.82 14.65 101.68 14.65ZM114.32 16.20L112.12 16.20L112.12 8.14L113.60 8.14L114.32 8.50Q115.07 8.35 116.14 8.24Q117.20 8.14 118.57 8.14L118.57 8.14L119.47 8.14Q120.37 8.14 120.85 8.39Q121.34 8.64 121.54 9.02Q121.75 9.40 121.80 9.78Q121.84 10.17 121.84 10.44L121.84 10.44L121.84 16.20L119.65 16.20L119.65 10.40Q119.65 9.68 118.78 9.68L118.78 9.68L114.86 9.68Q114.52 9.68 114.42 9.75Q114.32 9.81 114.32 10.08L114.32 10.08L114.32 16.20ZM126.18 18.68L126.18 18.68Q125.80 18.79 125.74 18.59Q125.68 18.38 125.80 18.16L125.80 18.16Q125.91 18.02 126.10 17.69Q126.29 17.37 126.47 16.97Q126.65 16.56 126.70 16.15L126.70 16.15Q126.23 16.07 126.02 15.80Q125.80 15.53 125.80 14.98L125.80 14.98Q125.80 14.35 126.10 14.09Q126.40 13.82 127.08 13.82L127.08 13.82Q127.82 13.82 128.19 14.14Q128.56 14.45 128.56 15.17L128.56 15.17Q128.56 15.70 128.33 16.27Q128.11 16.85 127.75 17.36Q127.39 17.87 126.97 18.23Q126.56 18.58 126.18 18.68ZM147.37 16.20L142.11 16.20Q140.85 16.20 140.13 15.84Q139.41 15.48 139.11 14.76Q138.82 14.04 138.82 12.98L138.82 12.98L138.82 8.82Q138.82 7.78 139.10 7.07Q139.39 6.35 140.11 5.99Q140.83 5.62 142.11 5.62L142.11 5.62L147.37 5.62Q148.63 5.62 149.34 5.99Q150.05 6.35 150.34 7.07Q150.64 7.78 150.64 8.82L150.64 8.82L150.64 12.98Q150.64 14.56 149.94 15.38Q149.24 16.20 147.37 16.20L147.37 16.20ZM142.63 14.47L142.63 14.47L146.86 14.47Q147.53 14.47 147.90 14.13Q148.27 13.79 148.27 13.19L148.27 13.19L148.27 8.60Q148.27 8.08 147.89 7.71Q147.51 7.34 146.86 7.34L146.86 7.34L142.63 7.34Q141.98 7.34 141.59 7.69Q141.19 8.03 141.19 8.60L141.19 8.60L141.19 13.19Q141.19 13.81 141.58 14.14Q141.97 14.47 142.63 14.47ZM158.08 16.20L157.16 16.20Q156.28 16.20 155.78 15.97Q155.29 15.73 155.08 15.37Q154.87 15.01 154.83 14.62Q154.78 14.22 154.78 13.90L154.78 13.90L154.78 8.14L156.98 8.14L156.98 13.93Q156.96 14.33 157.24 14.49Q157.52 14.65 157.84 14.65L157.84 14.65L161.41 14.65Q161.80 14.65 161.87 14.58Q161.95 14.51 161.95 14.11L161.95 14.11L161.95 8.14L164.14 8.14L164.14 16.20L162.67 16.20L161.98 15.84Q161.26 15.98 160.28 16.09Q159.30 16.20 158.08 16.20L158.08 16.20ZM170.30 16.20L168.10 16.20L168.10 8.14L169.58 8.14L170.26 8.50Q170.73 8.24 171.27 8.10Q171.81 7.96 172.64 7.96L172.64 7.96Q173.95 7.96 174.77 8.24Q175.59 8.53 175.86 8.68L175.86 8.68L175.23 10.24Q175.01 10.13 174.52 9.96Q174.02 9.79 173.36 9.65Q172.69 9.50 171.90 9.50L171.90 9.50L171.70 9.50Q170.84 9.50 170.58 9.85Q170.32 10.19 170.30 10.98L170.30 10.98L170.30 16.20ZM186.23 16.20L183.60 16.20L188.87 5.62L192.42 5.62L197.68 16.20L194.90 16.20L193.84 13.91L187.40 13.91L186.23 16.20ZM190.53 7.24L188.05 12.15L193.18 12.15L190.71 7.24L190.53 7.24ZM203.29 16.20L200.92 16.20L200.92 5.62L203.29 5.62L203.29 16.20ZM216.59 16.20L215.69 16.20Q214.33 16.20 213.71 15.56Q213.10 14.92 213.10 13.81L213.10 13.81Q213.10 12.64 213.74 12.01Q214.38 11.38 215.69 11.38L215.69 11.38L216.61 11.38Q217.96 11.38 219.04 11.45Q220.12 11.52 220.82 11.59L220.82 11.59L220.82 10.40Q220.82 10.24 220.79 10.07Q220.75 9.90 220.57 9.79Q220.39 9.68 219.96 9.68L219.96 9.68L219.06 9.68Q217.10 9.68 215.78 9.75Q214.47 9.81 214.00 9.86L214.00 9.86L213.80 8.50Q213.80 8.24 215.17 8.19Q216.54 8.14 219.74 8.14L219.74 8.14L220.64 8.14Q221.54 8.14 222.03 8.39Q222.52 8.64 222.72 9.02Q222.93 9.40 222.98 9.78Q223.02 10.17 223.02 10.44L223.02 10.44L223.02 16.20L221.54 16.20L220.84 15.84Q220.09 15.97 219.02 16.08Q217.96 16.20 216.59 16.20L216.59 16.20ZM216.16 14.65L216.16 14.65L220.28 14.65Q220.68 14.65 220.75 14.58Q220.82 14.51 220.82 14.13L220.82 14.13L220.82 12.74L216.16 12.74Q215.68 12.74 215.49 12.98Q215.30 13.21 215.30 13.72L215.30 13.72Q215.30 14.22 215.51 14.44Q215.73 14.65 216.16 14.65ZM230.58 16.20L230.02 16.20Q228.65 16.20 228.15 15.62Q227.65 15.05 227.65 13.90L227.65 13.90L227.65 9.68L226.17 9.68L226.17 8.14L226.93 8.14Q227.27 8.14 227.42 8.03Q227.57 7.92 227.65 7.60L227.65 7.60L228.01 5.67L229.84 5.67L229.84 8.14L233.59 8.14L233.59 9.68L229.84 9.68L229.84 13.91Q229.84 14.36 230.06 14.51Q230.27 14.65 230.71 14.65L230.71 14.65L233.24 14.65L233.42 16.02Q233.05 16.07 232.27 16.14Q231.50 16.20 230.58 16.20L230.58 16.20ZM249.30 16.20L246.92 16.20L246.92 11.81L241.69 5.62L244.57 5.62L247.23 8.98L248.06 10.10L248.24 10.10L249.07 8.98L251.73 5.62L254.61 5.62L253.91 6.70L249.30 11.88L249.30 16.20ZM263.21 16.20L258.25 16.20Q257.04 16.20 256.46 15.71Q255.87 15.23 255.87 14.13L255.87 14.13L255.87 10.44Q255.87 10.17 255.92 9.78Q255.96 9.40 256.17 9.02Q256.37 8.64 256.87 8.39Q257.36 8.14 258.25 8.14L258.25 8.14L263.21 8.14Q264.11 8.14 264.60 8.39Q265.09 8.64 265.29 9.02Q265.50 9.40 265.55 9.78Q265.59 10.17 265.59 10.44L265.59 10.44L265.59 13.90Q265.59 14.22 265.55 14.62Q265.50 15.01 265.28 15.37Q265.07 15.73 264.58 15.97Q264.10 16.20 263.21 16.20L263.21 16.20ZM258.93 14.65L258.93 14.65L262.53 14.65Q263.41 14.65 263.41 13.93L263.41 13.93L263.41 10.40Q263.41 9.68 262.53 9.68L262.53 9.68L258.93 9.68Q258.07 9.68 258.07 10.40L258.07 10.40L258.07 13.93Q258.07 14.65 258.93 14.65ZM272.66 16.20L271.75 16.20Q270.86 16.20 270.37 15.97Q269.87 15.73 269.67 15.37Q269.46 15.01 269.42 14.62Q269.37 14.22 269.37 13.90L269.37 13.90L269.37 8.14L271.57 8.14L271.57 13.93Q271.55 14.33 271.83 14.49Q272.11 14.65 272.43 14.65L272.43 14.65L275.99 14.65Q276.39 14.65 276.46 14.58Q276.53 14.51 276.53 14.11L276.53 14.11L276.53 8.14L278.73 8.14L278.73 16.20L277.25 16.20L276.57 15.84Q275.85 15.98 274.87 16.09Q273.89 16.20 272.66 16.20L272.66 16.20ZM284.89 16.20L282.69 16.20L282.69 8.14L284.17 8.14L284.85 8.50Q285.32 8.24 285.86 8.10Q286.40 7.96 287.23 7.96L287.23 7.96Q288.54 7.96 289.36 8.24Q290.18 8.53 290.45 8.68L290.45 8.68L289.82 10.24Q289.60 10.13 289.11 9.96Q288.61 9.79 287.95 9.65Q287.28 9.50 286.49 9.50L286.49 9.50L286.29 9.50Q285.43 9.50 285.17 9.85Q284.90 10.19 284.89 10.98L284.89 10.98L284.89 16.20ZM307.62 16.20L301.64 16.20Q300.42 16.20 299.84 16.09Q299.27 15.98 299.27 15.84L299.27 15.84L299.99 14.27Q300.40 14.35 302.05 14.41Q303.70 14.47 306.58 14.47L306.58 14.47L306.92 14.47Q307.69 14.47 308.02 14.19Q308.34 13.91 308.34 13.25L308.34 13.25L308.34 12.89Q308.34 12.26 308.08 11.99Q307.82 11.72 306.92 11.72L306.92 11.72L302.74 11.72Q300.92 11.72 300.10 11.04Q299.27 10.37 299.27 8.84L299.27 8.84L299.27 8.55Q299.27 7.76 299.57 7.09Q299.86 6.43 300.58 6.02Q301.30 5.62 302.56 5.62L302.56 5.62L307.46 5.62Q308.68 5.62 309.44 5.74Q310.19 5.87 310.19 6.01L310.19 6.01L309.83 7.52Q309.37 7.47 307.71 7.41Q306.05 7.34 303.26 7.34L303.26 7.34L303.07 7.33Q302.24 7.33 301.95 7.66Q301.66 7.99 301.64 8.50L301.64 8.50L301.64 8.80Q301.64 9.40 301.98 9.69Q302.31 9.99 303.08 9.99L303.08 9.99L307.08 9.99Q308.23 9.99 309.04 10.22Q309.85 10.46 310.28 11.08Q310.72 11.70 310.72 12.91L310.72 12.91L310.72 13.19Q310.72 14.54 310.02 15.37Q309.33 16.20 307.62 16.20L307.62 16.20ZM320.49 16.20L316.87 16.20Q315.97 16.20 315.49 15.97Q315.00 15.73 314.79 15.37Q314.59 15.01 314.54 14.62Q314.50 14.22 314.50 13.90L314.50 13.90L314.50 10.44Q314.50 10.17 314.54 9.78Q314.59 9.40 314.79 9.02Q315.00 8.64 315.50 8.39Q315.99 8.14 316.87 8.14L316.87 8.14L320.74 8.14Q321.93 8.14 322.61 8.36Q323.28 8.59 323.56 9.09Q323.84 9.59 323.84 10.44L323.84 10.44L323.84 13.10L320.69 13.10Q319.07 13.10 318.05 13.03Q317.03 12.96 316.69 12.94L316.69 12.94L316.69 13.93Q316.67 14.65 317.56 14.65L317.56 14.65L318.47 14.65Q319.45 14.65 320.37 14.63Q321.30 14.60 322.07 14.55Q322.85 14.51 323.32 14.47L323.32 14.47L324.04 15.64Q324.04 16.20 320.49 16.20L320.49 16.20ZM316.69 10.40L316.69 11.56L321.64 11.56L321.64 10.40Q321.64 10.04 321.56 9.90Q321.48 9.76 321.08 9.72Q320.69 9.68 319.73 9.68L319.73 9.68L317.56 9.68Q316.69 9.68 316.69 10.40L316.69 10.40ZM329.83 16.20L327.64 16.20L327.64 8.14L329.11 8.14L329.80 8.50Q330.26 8.24 330.80 8.10Q331.34 7.96 332.17 7.96L332.17 7.96Q333.49 7.96 334.31 8.24Q335.12 8.53 335.39 8.68L335.39 8.68L334.76 10.24Q334.55 10.13 334.05 9.96Q333.56 9.79 332.89 9.65Q332.23 9.50 331.43 9.50L331.43 9.50L331.24 9.50Q330.37 9.50 330.11 9.85Q329.85 10.19 329.83 10.98L329.83 10.98L329.83 16.20ZM344.14 16.20L341.26 16.20L337.55 8.14L340.07 8.14L342.14 13.10L342.61 14.40L342.79 14.40L343.26 13.10L345.37 8.14L347.81 8.14L347.53 9.23L344.14 16.20ZM352.15 7.00L352.15 7.00Q351.49 7.00 351.18 6.73Q350.87 6.46 350.87 5.83L350.87 5.83Q350.87 5.18 351.17 4.92Q351.47 4.66 352.15 4.66L352.15 4.66Q352.84 4.66 353.14 4.92Q353.45 5.18 353.45 5.83L353.45 5.83Q353.45 6.44 353.14 6.72Q352.84 7.00 352.15 7.00ZM353.25 16.20L351.05 16.20L351.05 8.14L353.25 8.14L353.25 16.20ZM363.22 16.20L359.60 16.20Q358.70 16.20 358.22 15.97Q357.73 15.73 357.53 15.37Q357.32 15.01 357.27 14.62Q357.23 14.22 357.23 13.90L357.23 13.90L357.23 10.44Q357.23 10.17 357.27 9.78Q357.32 9.40 357.53 9.02Q357.73 8.64 358.23 8.39Q358.72 8.14 359.60 8.14L359.60 8.14L362.11 8.14Q364.36 8.14 365.30 8.25Q366.25 8.37 366.25 8.50L366.25 8.50L365.89 9.86Q365.38 9.83 364.61 9.78Q363.83 9.74 362.94 9.71Q362.05 9.68 361.21 9.68L361.21 9.68L360.29 9.68Q359.42 9.68 359.42 10.40L359.42 10.40L359.42 13.93Q359.41 14.65 360.29 14.65L360.29 14.65L361.21 14.65Q362.18 14.65 363.11 14.63Q364.03 14.60 364.81 14.55Q365.58 14.51 366.05 14.47L366.05 14.47L366.77 15.64Q366.77 16.20 363.22 16.20L363.22 16.20ZM375.64 16.20L372.02 16.20Q371.12 16.20 370.64 15.97Q370.15 15.73 369.95 15.37Q369.74 15.01 369.69 14.62Q369.65 14.22 369.65 13.90L369.65 13.90L369.65 10.44Q369.65 10.17 369.69 9.78Q369.74 9.40 369.95 9.02Q370.15 8.64 370.65 8.39Q371.14 8.14 372.02 8.14L372.02 8.14L375.89 8.14Q377.08 8.14 377.76 8.36Q378.43 8.59 378.71 9.09Q378.99 9.59 378.99 10.44L378.99 10.44L378.99 13.10L375.84 13.10Q374.22 13.10 373.20 13.03Q372.19 12.96 371.84 12.94L371.84 12.94L371.84 13.93Q371.83 14.65 372.71 14.65L372.71 14.65L373.63 14.65Q374.60 14.65 375.53 14.63Q376.45 14.60 377.23 14.55Q378.00 14.51 378.47 14.47L378.47 14.47L379.19 15.64Q379.19 16.20 375.64 16.20L375.64 16.20ZM371.84 10.40L371.84 11.56L376.79 11.56L376.79 10.40Q376.79 10.04 376.71 9.90Q376.63 9.76 376.24 9.72Q375.84 9.68 374.89 9.68L374.89 9.68L372.71 9.68Q371.84 9.68 371.84 10.40L371.84 10.40Z" transform="translate(0, 0)"></path></g></svg></g><g transform="rotate(0 0 0)"><svg viewBoxSize="575" data-root-id="2565082407317" xmlns="http://www.w3.org/2000/svg" y="324.40499114990234" viewBox="4.639999866485596 15.020000457763672 119.4800033569336 37.18000030517578" x="227.76000381469726" height="37.18000030517578" width="119.4800033569336" fontUrl="https://fonts.gstatic.com/s/goldman/v19/pe0uMIWbN4JFplR2LDJ4Bt-7G98.ttf" zoom="1" editorType="buyer" data-layer-role="brandName" style="position: absolute; top: 324.405px; width: 119.48px; height: 37.18px; left: 227.76px;"><g data-horizontal-grow="center" zoom="1" root="[object Object]" style="fill: rgb(0, 0, 0);"><path d="M31.55 52.20L5.22 52.20L5.22 22.74L4.64 18.10L31.55 18.10Q36.25 18.10 38.77 19.26Q41.30 20.42 42.28 22.71Q43.27 25.00 43.27 28.42L43.27 28.42L43.27 41.82Q43.27 45.30 42.31 47.59Q41.35 49.88 38.83 51.04Q36.31 52.20 31.55 52.20L31.55 52.20ZM12.88 23.66L12.88 46.63L31.09 46.63Q35.55 46.63 35.61 42.51L35.61 42.51L35.61 27.72Q35.61 26.04 34.63 24.85Q33.64 23.66 31.09 23.66L31.09 23.66L12.88 23.66ZM69.95 39.44L51.39 39.44L51.39 32.71L69.95 32.71L69.95 39.44ZM88.45 52.20L85.55 52.20Q81.14 52.20 79.17 50.14Q77.20 48.08 77.20 44.49L77.20 44.49Q77.20 40.72 79.26 38.69Q81.32 36.66 85.55 36.66L85.55 36.66L88.51 36.66Q92.86 36.66 96.34 36.89Q99.82 37.12 102.08 37.35L102.08 37.35L102.08 33.52Q102.08 33.00 101.96 32.45Q101.85 31.90 101.27 31.55Q100.69 31.20 99.30 31.20L99.30 31.20L96.40 31.20Q90.07 31.20 85.84 31.41Q81.61 31.61 80.10 31.78L80.10 31.78L79.46 27.38Q79.46 26.56 83.87 26.39Q88.28 26.22 98.60 26.22L98.60 26.22L101.50 26.22Q104.40 26.22 105.97 27.03Q107.53 27.84 108.20 29.06Q108.87 30.28 109.01 31.52Q109.16 32.77 109.16 33.64L109.16 33.64L109.16 52.20L104.40 52.20L102.14 51.04Q99.70 51.45 96.28 51.82Q92.86 52.20 88.45 52.20L88.45 52.20ZM87.06 47.21L87.06 47.21L100.34 47.21Q101.62 47.21 101.85 46.98Q102.08 46.75 102.08 45.53L102.08 45.53L102.08 41.06L87.06 41.06Q85.49 41.06 84.88 41.82Q84.27 42.57 84.27 44.20L84.27 44.20Q84.27 45.82 84.97 46.52Q85.67 47.21 87.06 47.21ZM119.94 22.56L119.94 22.56Q117.80 22.56 116.81 21.69Q115.83 20.82 115.83 18.79L115.83 18.79Q115.83 16.70 116.78 15.86Q117.74 15.02 119.94 15.02L119.94 15.02Q122.15 15.02 123.13 15.86Q124.12 16.70 124.12 18.79L124.12 18.79Q124.12 20.76 123.13 21.66Q122.15 22.56 119.94 22.56ZM123.48 52.20L116.41 52.20L116.41 26.22L123.48 26.22L123.48 52.20Z" transform="translate(0, 0)"></path></g></svg></g></svg>