<svg viewBox="0 0 575 575" class=""><g transform="rotate(0 0 0)"><svg viewBoxSize="575" data-root-id="1379348691167" x="217" y="187.5" xmlns="http://www.w3.org/2000/svg" preserveAspectRatio="xMinYMin" width="140.00000000000003" height="140.00000000000003" zoom="1" editorType="buyer" data-layer-role="ellipse" style="top: 187.5px; left: 217px; fill: rgb(15, 24, 50); width: 140px; height: 140px; position: absolute; fill-opacity: 1;"><rect rx="50%" ry="50%" x="0" y="0" height="140" width="140" data-layer-id="0445864391171" style="stroke-width: 0; stroke: rgb(0, 0, 0); width: 140px; height: 140px; top: 0px; left: 0px;"></rect></svg></g><g transform="rotate(0 0 0)"><svg viewBoxSize="575" data-root-id="7748746989256" xmlns="http://www.w3.org/2000/svg" xmlns:xlink="http://www.w3.org/1999/xlink" id="Layer_2" dataName="Layer 2" viewBox="0.004999980330467224 -0.0018765926361083984 161.486328125 154.15780639648438" height="90.68869765923948" width="95" y="210.156" x="240" preserveAspectRatio="xMinYMin" zoom="1" editorType="buyer" data-layer-role="icon" style="position: absolute; height: 90.6887px; width: 95px; top: 210.156px; left: 240px;"><linearGradient id="linear-gradient" x1="124.87" y1="65.32" x2="36.62" y2="65.32" gradientUnits="userSpaceOnUse" name="Layer %{number}" zoom="1" data-layer-id="5385944689271"><stop offset="0" stop-color="#1359c1"></stop><stop offset="1" stop-color="#00ecff"></stop></linearGradient><linearGradient id="linear-gradient-2" x1="54.76" y1="31.53" x2="105.01" y2="47.87" xlink:href="#linear-gradient" name="Layer %{number}" zoom="1" data-layer-id="3509610389277"></linearGradient><linearGradient id="linear-gradient-3" x1="100.93" y1="110.73" x2="172.48" y2="98.29" xlink:href="#linear-gradient" name="Layer %{number}" zoom="1" data-layer-id="4306854589283"></linearGradient><linearGradient id="linear-gradient-4" x1="117.73" y1="90.53" x2="149.08" y2="90.53" xlink:href="#linear-gradient" name="Layer %{number}" zoom="1" data-layer-id="6833811889288"></linearGradient><linearGradient id="linear-gradient-5" x1="28.07" y1="127.82" x2="28.07" y2="65.58" xlink:href="#linear-gradient" name="Layer %{number}" zoom="1" data-layer-id="4304007589293"></linearGradient><linearGradient id="linear-gradient-6" x1="43.77" y1="80.49" x2="43.77" y2="80.52" xlink:href="#linear-gradient" name="Layer %{number}" zoom="1" data-layer-id="1274759289298"></linearGradient><linearGradient id="linear-gradient-7" x1="80.77" y1="88.56" x2="80.67" y2="88.91" xlink:href="#linear-gradient" name="Layer %{number}" zoom="1" data-layer-id="7992832689302"></linearGradient><linearGradient id="linear-gradient-8" x1="81.72" y1="133.83" x2="82.55" y2="128.93" xlink:href="#linear-gradient" name="Layer %{number}" zoom="1" data-layer-id="8108528889306"></linearGradient><linearGradient id="linear-gradient-9" x1=".28" y1="121.84" x2="105.33" y2="50.71" xlink:href="#linear-gradient" name="Layer %{number}" zoom="1" data-layer-id="8377761889310"></linearGradient><linearGradient id="linear-gradient-10" x1="68.35" y1="116.57" x2="56.44" y2="12.6" xlink:href="#linear-gradient" name="Layer %{number}" zoom="1" data-layer-id="8653030789315"></linearGradient><linearGradient id="linear-gradient-11" x1="103.59" y1="5.69" x2="104.02" y2="5.24" xlink:href="#linear-gradient" name="Layer %{number}" zoom="1" data-layer-id="8352540189319"></linearGradient><linearGradient id="linear-gradient-12" x1="115.93" y1="14.6" x2="116.06" y2="14.46" xlink:href="#linear-gradient" name="Layer %{number}" zoom="1" data-layer-id="7522158489323"></linearGradient><linearGradient id="linear-gradient-13" x1="117.86" y1="16.94" x2="118.13" y2="16.65" xlink:href="#linear-gradient" name="Layer %{number}" zoom="1" data-layer-id="7921640489326"></linearGradient><linearGradient id="linear-gradient-14" x1="120.28" y1="20.6" x2="120.84" y2="20" xlink:href="#linear-gradient" name="Layer %{number}" zoom="1" data-layer-id="7534759689331"></linearGradient><linearGradient id="linear-gradient-15" x1="122.08" y1="25.16" x2="123.52" y2="23.61" xlink:href="#linear-gradient" name="Layer %{number}" zoom="1" data-layer-id="3685133289335"></linearGradient><linearGradient id="linear-gradient-16" x1="124.75" y1="31.06" x2="125.76" y2="29.98" xlink:href="#linear-gradient" name="Layer %{number}" zoom="1" data-layer-id="6799287489339"></linearGradient><linearGradient id="linear-gradient-17" x1="125.43" y1="56.14" x2="125.64" y2="55.92" xlink:href="#linear-gradient" name="Layer %{number}" zoom="1" data-layer-id="8309859789343"></linearGradient><linearGradient id="linear-gradient-18" x1="126" y1="39.53" x2="127.42" y2="38" xlink:href="#linear-gradient" name="Layer %{number}" zoom="1" data-layer-id="4734577889347"></linearGradient><linearGradient id="linear-gradient-19" x1="126.02" y1="46.3" x2="127.58" y2="44.62" xlink:href="#linear-gradient" name="Layer %{number}" zoom="1" data-layer-id="3904578489350"></linearGradient><linearGradient id="linear-gradient-20" x1="80.61" y1="88.8" x2="80.88" y2="88.52" xlink:href="#linear-gradient" name="Layer %{number}" zoom="1" data-layer-id="6740053789354"></linearGradient><path class="cls-2" d="M36.62,58.54s24.48-8.39,44.39-8.39,43.87,8.43,43.87,8.43l-8.69,7.87,1.54,14.06s-23.67-11.08-36.97-11.08-36.99,11.06-36.99,11.06l2.06-15.4-9.21-6.55Z" name="Layer %{number}" zoom="1" data-layer-id="9559012489357" style="fill: url(&quot;#linear-gradient&quot;);"></path><path class="cls-15" d="M102.57,50.77c-1.59,6.57-4.47,11.44-6.47,14.32.17-.42.34-.84.5-1.25.15-.41.3-.8.45-1.2.17-.45.32-.9.47-1.33.11-.33.23-.64.33-.95.2-.62.39-1.22.57-1.81.1-.32.19-.64.28-.96.48-1.63.87-3.17,1.18-4.57.33-1.09,2.8-10.72-3.24-19.82-3.58-5.4-9.26-8.99-15.87-8.99h-.05c-.29,0-.59.01-.88.02-.26.02-.52.03-.77.05-.06,0-.13,0-.19.02-.25.03-.48.06-.72.09-.06.01-.11.02-.17.02-.24.04-.48.09-.73.13-.01,0-.02.01-.03.01-5.11,1.02-9.45,4.23-12.38,8.65-6.03,9.1-3.57,18.73-3.24,19.82.77,3.38,1.93,7.52,3.78,12.07-1.99-2.88-4.88-7.75-6.46-14.32-1.08-4.48-5.58-23.32,7.14-34.12,3.14-2.68,6.89-4.47,10.83-5.42h.04c1.25-.31,2.53-.45,3.81-.45,1.35,0,2.69.17,4.01.5,3.88.96,7.56,2.73,10.66,5.37,12.72,10.8,8.23,29.64,7.15,34.12Z" name="Layer %{number}" zoom="1" data-layer-id="9137747589361" style="fill: url(&quot;#linear-gradient-2&quot;);"></path><path class="cls-16" d="M161.43,115.06c-.13,2.69-4.03,29.1-25.33,37.01-15.38,5.72-30.16-1.81-36.38-4.97-2.81-1.44-5.99-3.35-11.26-7.59-2.72-2.19-5.29-4.43-7.72-6.7,1.16-1.13,2.34-2.32,3.54-3.59,6.61-6.78,12.04-13.34,16.46-19.33,1.71,1.81,3.87,3.78,6.6,5.63,5.77,3.94,11.44,5.63,15.33,6.4.32.07.63.12.92.18,1.64.28,13.18,2.14,20.31-5.27,4.55-4.74,4.94-10.84,5.13-14.48,1.1-21.59-19.6-39.95-24.16-43.83.06.04.13.08.21.11,3.66,2.14,19.61,11.79,28.5,26.33,5.01,8.19,7.28,17.08,7.58,20.16.17,1.66.28,3.44.32,5.33,0,0,.05,2.4-.06,4.58Z" name="Layer %{number}" zoom="1" data-layer-id="8343018589364" style="fill: url(&quot;#linear-gradient-3&quot;);"></path><path class="cls-14" d="M149.04,102.36c-.18,3.64-.58,9.74-5.13,14.48-7.13,7.41-18.67,5.55-20.31,5.27h0c1.81-.7,5.31-2.33,7.68-5.95,3.25-4.99,2.23-10.49,1.61-13.89-2.23-12.08-11.8-19.41-15.18-21.76,1.63-3.65,3.25-7.79,4.68-12.41,1.03-3.35,1.84-6.54,2.47-9.51,0-.02,0-.02,0-.04,4.55,3.88,25.26,22.23,24.16,43.83Z" name="Layer %{number}" zoom="1" data-layer-id="2317033989368" style="fill: url(&quot;#linear-gradient-4&quot;);"></path><path class="cls-20" d="M39.1,68.1c1.43,4.61,3.04,8.75,4.67,12.39-3.36,2.35-12.97,9.69-15.2,21.78-.63,3.4-1.64,8.9,1.61,13.89,2.37,3.63,5.88,5.27,7.69,5.96-1.64.29-13.21,2.14-20.33-5.27-4.54-4.74-4.94-10.84-5.12-14.48-1.11-21.59,19.65-39.95,24.2-43.83.63,2.99,1.44,6.19,2.48,9.56Z" name="Layer %{number}" zoom="1" data-layer-id="8110029789371" style="fill: url(&quot;#linear-gradient-5&quot;);"></path><path class="cls-21" d="M43.76,80.52v-.03s.01.01.01.02c0,0-.01,0-.01.01Z" name="Layer %{number}" zoom="1" data-layer-id="5235870689374" style="fill: url(&quot;#linear-gradient-6&quot;);"></path><path class="cls-19" d="M80.75,88.91c-.09-.09-.17-.18-.26-.27l.25.29h.01c.08-.09.17-.19.25-.29-.08.09-.17.18-.25.27Z" name="Layer %{number}" zoom="1" data-layer-id="1143736689378" style="fill: url(&quot;#linear-gradient-7&quot;);"></path><path class="cls-17" d="M79.97,133.53c.26-.23.52-.47.78-.71,1.16-1.13,2.34-2.32,3.54-3.59-1.39,1.42-2.83,2.86-4.32,4.3Z" name="Layer %{number}" zoom="1" data-layer-id="3600065189381" style="fill: url(&quot;#linear-gradient-8&quot;);"></path><path class="cls-18" d="M126.82,40.47s0-.04,0-.06v-.11c-.05-1.02-.13-2.04-.23-3.07-.13-1.06-.28-2.12-.48-3.19-.08-.4-.16-.81-.25-1.22-.07-.31-.14-.61-.22-.92-.23-.92-.49-1.83-.78-2.75-.09-.25-.17-.51-.26-.76-.16-.45-.33-.89-.5-1.33h0c-.54-1.34-1.15-2.68-1.87-4.01-.24-.44-.49-.89-.74-1.31h0c-.59-.98-1.2-1.94-1.86-2.86-.22-.31-.45-.61-.68-.91h0c-.61-.8-1.25-1.58-1.92-2.33h0c-.67-.76-1.37-1.5-2.09-2.2-.26-.27-.54-.53-.82-.79-.28-.26-.56-.51-.84-.76-.57-.5-1.15-.98-1.75-1.47h-.01c-.3-.23-.59-.46-.89-.69h-.01c-.6-.46-1.22-.9-1.86-1.33h-.01c-.31-.23-.63-.43-.95-.64-.65-.41-1.3-.81-1.96-1.19h-.01c-.33-.2-.67-.39-1-.57-.34-.19-.68-.36-1.02-.54h-.01c-.34-.18-.68-.35-1.03-.52s-.69-.33-1.04-.49h-.01c-.35-.16-.7-.32-1.05-.46h-.01c-.36-.16-.71-.31-1.07-.45-.36-.14-.73-.28-1.09-.42-.36-.14-.72-.27-1.08-.39C92.15.9,86.51-.05,80.88,0h-.13v10.77c1.35,0,2.69.17,4.01.5,3.88.96,7.56,2.73,10.66,5.37,12.72,10.8,8.23,29.64,7.15,34.12-1.59,6.57-4.47,11.44-6.47,14.32-.01,0-.01.02-.01.04-.21.51-.43,1.03-.66,1.56-.14.32-.29.65-.44.98-.1.24-.21.49-.34.74-.19.43-.39.86-.6,1.28-.24.49-.48.97-.73,1.46-.01.02-.02.05-.04.07-.24.48-.49.96-.76,1.45-.27.5-.54,1-.84,1.51-.4.71-.81,1.41-1.23,2.08-.7,1.15-1.41,2.24-2.13,3.29-.23.33-.46.65-.68.98-.23.32-.46.63-.69.94-.2.29-.4.56-.61.83-.3.41-.6.8-.91,1.19-.4.5-.79.99-1.19,1.47-.22.27-.44.53-.66.79-.52.62-1.04,1.2-1.55,1.76-.21.25-.43.49-.65.71-.13.15-.26.29-.38.42-.08.1-.17.2-.25.3h-.01c-10.74,12.36-18.71,19.83-18.71,19.83-.16.16-.29.27-.41.39-.25.24-.47.45-.94.89-.24.22-.47.44-.71.65-.75.76-1.59,1.53-2.5,2.31h-.01l-.02.02c-.99.84-2.09,1.69-3.3,2.51-5.66,3.87-11.22,5.57-15.1,6.35-.08.02-.15.03-.23.05-.15.03-.31.06-.47.09-.16.03-.3.06-.45.09h0s-.02,0-.03,0c-1.64.29-13.21,2.14-20.33-5.27-4.54-4.74-4.94-10.84-5.12-14.48-1.11-21.59,19.65-39.95,24.2-43.83-.06.03-.13.07-.19.12-3.67,2.13-19.61,11.79-28.51,26.33C2.91,93.18.65,102.06.34,105.15c-.14,1.38-.24,2.84-.29,4.39-.02.31-.03.62-.03.93,0,0-.06,2.41.06,4.6.14,2.68,4.03,29.1,25.32,37,15.38,5.72,30.16-1.8,36.38-4.96,2.51-1.28,5.3-2.94,9.61-6.3.02-.02.04-.03.07-.04.5-.39,1.03-.81,1.58-1.26,2.41-1.94,4.7-3.92,6.89-5.93.02-.01.03-.03.05-.04,1.49-1.44,2.93-2.88,4.32-4.31,6.61-6.78,12.04-13.34,16.46-19.32,12.04-16.3,16.61-28.41,16.95-29.35.01-.01.02-.03.02-.03v-.02c1.63-3.65,3.26-7.79,4.68-12.41,1.03-3.36,1.84-6.54,2.47-9.52,0-.01,0-.02.01-.04.11-.4.25-.9.4-1.49.05-.17.1-.35.14-.54t0-.02c.03-.09.05-.19.07-.29.02-.1.05-.21.07-.31.01-.01.01-.02.01-.03.25-1.13.52-2.49.73-4.04.06-.38.11-.79.16-1.2.03-.22.05-.45.07-.69.08-.69.14-1.42.18-2.18.01-.25.02-.51.04-.77.01-.26.01-.53.02-.8.01-.26.01-.52.01-.79.03-.48.05-.96.07-1.44.01-.46.01-.92.01-1.39,0-.69-.01-1.39-.04-2.09Z" name="Layer %{number}" zoom="1" data-layer-id="2695912989384" style="fill: url(&quot;#linear-gradient-9&quot;);"></path><path class="cls-6" d="M58.93,50.77c1.58,6.57,4.47,11.44,6.46,14.32,1.18,2.89,2.63,5.95,4.42,9.09,2.91,5.11,6.07,9.28,8.95,12.55.59.68,1.17,1.31,1.73,1.91l.25.29c-10.74,12.37-18.71,19.84-18.71,19.84-3.47-3.81-7.54-8.72-11.23-14.69-2.9-4.68-5.11-9.12-6.81-13.09-.07-.17-.13-.33-.2-.5,0,.01-.01.01-.02.02,0-.01-.01-.01-.01-.02-1.63-3.64-3.24-7.78-4.67-12.39-1.04-3.37-1.85-6.57-2.48-9.56-.18-.64-.42-1.54-.68-2.65v-.03c-.57-2.52-1.18-6.16-1.22-10.47-.37-7.21.51-14.85,4.55-22.34C46.41,9.81,61.21,1.27,76.62.14c.06-.01.13-.01.2-.02.06-.01.12-.01.19-.01,1.2-.08,2.4-.12,3.6-.1h.14v10.77c-1.28,0-2.56.14-3.81.45h-.04c-3.94.95-7.69,2.74-10.83,5.42-12.72,10.8-8.22,29.64-7.14,34.12Z" name="Layer %{number}" zoom="1" data-layer-id="4017988589388" style="fill: url(&quot;#linear-gradient-10&quot;);"></path><path class="cls-3" d="M104.83,5.99c-.67-.37-1.35-.71-2.05-1.06.69.34,1.38.68,2.05,1.06Z" name="Layer %{number}" zoom="1" data-layer-id="2584856889391" style="fill: url(&quot;#linear-gradient-11&quot;);"></path><path class="cls-4" d="M117.04,15.62c-.67-.75-1.37-1.48-2.09-2.19.73.7,1.42,1.44,2.09,2.19Z" name="Layer %{number}" zoom="1" data-layer-id="4744603589394" style="fill: url(&quot;#linear-gradient-12&quot;);"></path><path class="cls-5" d="M118.96,17.96c-.62-.8-1.26-1.58-1.92-2.33.67.75,1.32,1.53,1.92,2.33Z" name="Layer %{number}" zoom="1" data-layer-id="7371587289398" style="fill: url(&quot;#linear-gradient-13&quot;);"></path><path class="cls-12" d="M121.49,21.72c-.59-.97-1.2-1.93-1.86-2.85.67.92,1.29,1.88,1.86,2.85Z" name="Layer %{number}" zoom="1" data-layer-id="2126948489401" style="fill: url(&quot;#linear-gradient-14&quot;);"></path><path class="cls-10" d="M124.1,27.04c-.54-1.33-1.15-2.66-1.87-4-.24-.44-.49-.89-.74-1.32.26.43.51.86.75,1.31.72,1.33,1.34,2.67,1.86,4Z" name="Layer %{number}" zoom="1" data-layer-id="6081171789404" style="fill: url(&quot;#linear-gradient-15&quot;);"></path><path class="cls-8" d="M125.65,31.9c-.23-.92-.49-1.83-.79-2.75.31.92.57,1.83.79,2.75Z" name="Layer %{number}" zoom="1" data-layer-id="3217810489408" style="fill: url(&quot;#linear-gradient-16&quot;);"></path><path class="cls-7" d="M125.57,55.86s0,.04,0,.05c-.02.1-.05.19-.07.28.02-.1.05-.21.07-.31t0-.02Z" name="Layer %{number}" zoom="1" data-layer-id="7132389189411" style="fill: url(&quot;#linear-gradient-17&quot;);"></path><path class="cls-11" d="M126.82,40.29c-.05-1.02-.12-2.04-.23-3.06.11,1.03.19,2.04.23,3.06Z" name="Layer %{number}" zoom="1" data-layer-id="2295455789414" style="fill: url(&quot;#linear-gradient-18&quot;);"></path><path class="cls-9" d="M126.85,43.94c0,.48-.03.96-.05,1.44,0,.54-.02,1.07-.05,1.59.02-.52.03-1.05.04-1.58.02-.48.05-.96.06-1.45Z" name="Layer %{number}" zoom="1" data-layer-id="6020747289418" style="fill: url(&quot;#linear-gradient-19&quot;);"></path><path class="cls-1" d="M44,80.99c-.07-.16-.15-.32-.22-.48" name="Layer %{number}" zoom="1" data-layer-id="7746523689421" style="fill: none;"></path><path class="cls-1" d="M38.82,121.94c-.31.06-.63.11-.93.17" name="Layer %{number}" zoom="1" data-layer-id="6646348689424" style="fill: none;"></path><path class="cls-13" d="M81,88.64c-.08.1-.17.2-.25.3h-.01s-.25-.3-.25-.3c.09.09.17.18.26.27.08-.09.17-.18.25-.27Z" name="Layer %{number}" zoom="1" data-layer-id="5815044889427" style="fill: url(&quot;#linear-gradient-20&quot;);"></path><path class="cls-1" d="M123.61,122.1c-.3-.05-.61-.11-.93-.17" name="Layer %{number}" zoom="1" data-layer-id="6656319789431" style="fill: none;"></path><path class="cls-1" d="M81.83,34.33c-.08.1-.17.2-.26.29" name="Layer %{number}" zoom="1" data-layer-id="7202705589434" style="fill: none;"></path></svg></g><g transform="rotate(0 0 0)"><svg viewBoxSize="575" data-root-id="1958755489437" xmlns="http://www.w3.org/2000/svg" y="375.5" viewBox="-0.12000000476837158 2.549999952316284 229.05999755859375 12" x="172.97000457763673" height="12" width="229.05999755859375" fontUrl="https://fonts.gstatic.com/s/montserrat/v26/JTUHjIg1_i6t8kCHKm4532VJOt5-QNFgpCu170w-Y3tcoqK5.ttf" zoom="1" editorType="buyer" data-layer-role="slogan" style="position: absolute; top: 375.5px; width: 229.06px; height: 12px; left: 172.97px;"><g data-horizontal-grow="center" zoom="1" root="[object Object]" style="fill: rgb(48, 127, 195); fill-opacity: 1;"><path d="M5.15 12.58L3.46 12.58L3.46 8.98L3.84 10.02L-0.12 3.48L1.69 3.48L4.86 8.75L3.85 8.75L7.05 3.48L8.71 3.48L4.76 10.02L5.15 8.98L5.15 12.58ZM12.78 12.68L12.78 12.68Q11.71 12.68 10.88 12.21Q10.05 11.75 9.57 10.95Q9.09 10.14 9.09 9.11L9.09 9.11Q9.09 8.07 9.57 7.27Q10.05 6.47 10.88 6.02Q11.71 5.56 12.78 5.56L12.78 5.56Q13.86 5.56 14.70 6.02Q15.54 6.47 16.01 7.27Q16.48 8.06 16.48 9.11L16.48 9.11Q16.48 10.14 16.01 10.95Q15.54 11.75 14.70 12.21Q13.86 12.68 12.78 12.68ZM12.78 11.28L12.78 11.28Q13.38 11.28 13.85 11.02Q14.31 10.76 14.58 10.27Q14.85 9.78 14.85 9.11L14.85 9.11Q14.85 8.44 14.58 7.95Q14.31 7.46 13.85 7.20Q13.38 6.94 12.79 6.94L12.79 6.94Q12.19 6.94 11.73 7.20Q11.27 7.46 11.00 7.95Q10.72 8.44 10.72 9.11L10.72 9.11Q10.72 9.78 11.00 10.27Q11.27 10.76 11.73 11.02Q12.19 11.28 12.78 11.28ZM20.98 12.68L20.98 12.68Q20.10 12.68 19.42 12.34Q18.75 12.01 18.37 11.33Q17.99 10.65 17.99 9.61L17.99 9.61L17.99 5.64L19.62 5.64L19.62 9.39Q19.62 10.32 20.04 10.78Q20.46 11.25 21.24 11.25L21.24 11.25Q21.81 11.25 22.24 11.01Q22.66 10.78 22.90 10.31Q23.14 9.84 23.14 9.15L23.14 9.15L23.14 5.64L24.77 5.64L24.77 12.58L23.22 12.58L23.22 10.71L23.49 11.28Q23.14 11.96 22.46 12.32Q21.79 12.68 20.98 12.68ZM28.52 12.58L26.90 12.58L26.90 5.64L28.44 5.64L28.44 7.55L28.26 6.99Q28.57 6.29 29.24 5.93Q29.91 5.56 30.91 5.56L30.91 5.56L30.91 7.11Q30.81 7.09 30.72 7.08Q30.63 7.07 30.54 7.07L30.54 7.07Q29.61 7.07 29.07 7.61Q28.52 8.15 28.52 9.22L28.52 9.22L28.52 12.58ZM40.46 12.58L38.79 12.58L34.81 3.48L36.65 3.48L40.20 11.71L39.14 11.71L42.73 3.48L44.42 3.48L40.46 12.58ZM47.05 12.58L45.42 12.58L45.42 5.64L47.05 5.64L47.05 12.58ZM46.24 4.50L46.24 4.50Q45.79 4.50 45.49 4.21Q45.20 3.93 45.20 3.52L45.20 3.52Q45.20 3.11 45.49 2.83Q45.79 2.55 46.24 2.55L46.24 2.55Q46.70 2.55 46.99 2.81Q47.28 3.08 47.28 3.48L47.28 3.48Q47.28 3.91 47.00 4.21Q46.71 4.50 46.24 4.50ZM51.32 12.68L51.32 12.68Q50.45 12.68 49.65 12.45Q48.85 12.22 48.39 11.90L48.39 11.90L49.01 10.66Q49.48 10.96 50.13 11.15Q50.78 11.35 51.43 11.35L51.43 11.35Q52.20 11.35 52.54 11.14Q52.88 10.93 52.88 10.58L52.88 10.58Q52.88 10.30 52.65 10.15Q52.42 10.00 52.04 9.92Q51.66 9.84 51.20 9.78Q50.74 9.71 50.28 9.60Q49.82 9.49 49.44 9.28Q49.06 9.06 48.83 8.70Q48.59 8.33 48.59 7.74L48.59 7.74Q48.59 7.07 48.97 6.58Q49.35 6.10 50.03 5.83Q50.71 5.56 51.65 5.56L51.65 5.56Q52.35 5.56 53.07 5.72Q53.78 5.88 54.25 6.16L54.25 6.16L53.63 7.40Q53.13 7.10 52.63 6.99Q52.13 6.88 51.64 6.88L51.64 6.88Q50.90 6.88 50.54 7.10Q50.18 7.32 50.18 7.66L50.18 7.66Q50.18 7.97 50.41 8.13Q50.65 8.28 51.03 8.37Q51.40 8.46 51.86 8.52Q52.33 8.58 52.78 8.70Q53.24 8.81 53.62 9.02Q54.00 9.22 54.24 9.58Q54.47 9.95 54.47 10.53L54.47 10.53Q54.47 11.18 54.09 11.66Q53.70 12.14 53.00 12.41Q52.30 12.68 51.32 12.68ZM57.50 12.58L55.87 12.58L55.87 5.64L57.50 5.64L57.50 12.58ZM56.69 4.50L56.69 4.50Q56.24 4.50 55.95 4.21Q55.65 3.93 55.65 3.52L55.65 3.52Q55.65 3.11 55.95 2.83Q56.24 2.55 56.69 2.55L56.69 2.55Q57.15 2.55 57.44 2.81Q57.73 3.08 57.73 3.48L57.73 3.48Q57.73 3.91 57.45 4.21Q57.16 4.50 56.69 4.50ZM62.75 12.68L62.75 12.68Q61.69 12.68 60.85 12.21Q60.02 11.75 59.54 10.95Q59.06 10.14 59.06 9.11L59.06 9.11Q59.06 8.07 59.54 7.27Q60.02 6.47 60.85 6.02Q61.69 5.56 62.75 5.56L62.75 5.56Q63.83 5.56 64.67 6.02Q65.51 6.47 65.98 7.27Q66.46 8.06 66.46 9.11L66.46 9.11Q66.46 10.14 65.98 10.95Q65.51 11.75 64.67 12.21Q63.83 12.68 62.75 12.68ZM62.75 11.28L62.75 11.28Q63.35 11.28 63.82 11.02Q64.29 10.76 64.55 10.27Q64.82 9.78 64.82 9.11L64.82 9.11Q64.82 8.44 64.55 7.95Q64.29 7.46 63.82 7.20Q63.35 6.94 62.76 6.94L62.76 6.94Q62.17 6.94 61.70 7.20Q61.24 7.46 60.97 7.95Q60.70 8.44 60.70 9.11L60.70 9.11Q60.70 9.78 60.97 10.27Q61.24 10.76 61.70 11.02Q62.17 11.28 62.75 11.28ZM71.95 5.56L71.95 5.56Q72.79 5.56 73.44 5.89Q74.10 6.21 74.48 6.88Q74.85 7.55 74.85 8.61L74.85 8.61L74.85 12.58L73.23 12.58L73.23 8.81Q73.23 7.89 72.79 7.44Q72.36 6.98 71.58 6.98L71.58 6.98Q71.01 6.98 70.56 7.22Q70.12 7.45 69.88 7.91Q69.64 8.37 69.64 9.07L69.64 9.07L69.64 12.58L68.02 12.58L68.02 5.64L69.56 5.64L69.56 7.51L69.29 6.94Q69.65 6.28 70.35 5.92Q71.05 5.56 71.95 5.56ZM77.55 14.55L76.49 14.55L77.25 11.67L77.47 12.64Q77.01 12.64 76.71 12.36Q76.40 12.08 76.40 11.60L76.40 11.60Q76.40 11.10 76.71 10.81Q77.01 10.52 77.45 10.52L77.45 10.52Q77.91 10.52 78.21 10.82Q78.51 11.12 78.51 11.60L78.51 11.60Q78.51 11.73 78.48 11.88Q78.45 12.03 78.40 12.22Q78.34 12.42 78.21 12.71L78.21 12.71L77.55 14.55ZM88.10 12.71L88.10 12.71Q87.03 12.71 86.14 12.36Q85.24 12.01 84.58 11.38Q83.91 10.75 83.55 9.90Q83.19 9.05 83.19 8.03L83.19 8.03Q83.19 7.02 83.55 6.17Q83.91 5.32 84.58 4.69Q85.24 4.06 86.14 3.71Q87.03 3.35 88.09 3.35L88.09 3.35Q89.15 3.35 90.04 3.71Q90.94 4.06 91.60 4.69Q92.26 5.32 92.63 6.17Q92.99 7.02 92.99 8.03L92.99 8.03Q92.99 9.05 92.63 9.91Q92.26 10.76 91.60 11.39Q90.94 12.01 90.04 12.36Q89.15 12.71 88.10 12.71ZM88.09 11.23L88.09 11.23Q88.78 11.23 89.36 11.00Q89.95 10.76 90.38 10.33Q90.80 9.89 91.05 9.31Q91.29 8.74 91.29 8.03L91.29 8.03Q91.29 7.33 91.05 6.75Q90.80 6.18 90.38 5.74Q89.95 5.30 89.36 5.07Q88.78 4.84 88.09 4.84L88.09 4.84Q87.40 4.84 86.82 5.07Q86.24 5.30 85.81 5.74Q85.37 6.18 85.13 6.75Q84.89 7.33 84.89 8.03L84.89 8.03Q84.89 8.72 85.13 9.31Q85.37 9.89 85.80 10.33Q86.23 10.76 86.81 11.00Q87.40 11.23 88.09 11.23ZM97.56 12.68L97.56 12.68Q96.68 12.68 96.00 12.34Q95.33 12.01 94.95 11.33Q94.57 10.65 94.57 9.61L94.57 9.61L94.57 5.64L96.20 5.64L96.20 9.39Q96.20 10.32 96.62 10.78Q97.04 11.25 97.82 11.25L97.82 11.25Q98.40 11.25 98.82 11.01Q99.24 10.78 99.48 10.31Q99.72 9.84 99.72 9.15L99.72 9.15L99.72 5.64L101.35 5.64L101.35 12.58L99.80 12.58L99.80 10.71L100.07 11.28Q99.72 11.96 99.05 12.32Q98.37 12.68 97.56 12.68ZM105.10 12.58L103.48 12.58L103.48 5.64L105.03 5.64L105.03 7.55L104.84 6.99Q105.16 6.29 105.83 5.93Q106.50 5.56 107.50 5.56L107.50 5.56L107.50 7.11Q107.39 7.09 107.30 7.08Q107.21 7.07 107.12 7.07L107.12 7.07Q106.20 7.07 105.65 7.61Q105.10 8.15 105.10 9.22L105.10 9.22L105.10 12.58ZM113.14 12.58L111.40 12.58L115.49 3.48L117.16 3.48L121.26 12.58L119.50 12.58L115.97 4.38L116.65 4.38L113.14 12.58ZM119.11 10.48L113.28 10.48L113.74 9.15L118.65 9.15L119.11 10.48ZM124.11 12.58L122.42 12.58L122.42 3.48L124.11 3.48L124.11 12.58ZM135.81 12.58L134.28 12.58L134.28 11.18L134.19 10.88L134.19 8.42Q134.19 7.71 133.76 7.31Q133.33 6.92 132.46 6.92L132.46 6.92Q131.87 6.92 131.31 7.10Q130.74 7.28 130.35 7.61L130.35 7.61L129.71 6.42Q130.27 5.99 131.05 5.78Q131.82 5.56 132.65 5.56L132.65 5.56Q134.16 5.56 134.99 6.29Q135.81 7.01 135.81 8.52L135.81 8.52L135.81 12.58ZM132.09 12.68L132.09 12.68Q131.31 12.68 130.73 12.41Q130.14 12.14 129.82 11.67Q129.51 11.19 129.51 10.60L129.51 10.60Q129.51 10.01 129.79 9.54Q130.06 9.07 130.70 8.80Q131.34 8.53 132.39 8.53L132.39 8.53L134.41 8.53L134.41 9.61L132.51 9.61Q131.68 9.61 131.39 9.87Q131.10 10.14 131.10 10.53L131.10 10.53Q131.10 10.97 131.46 11.23Q131.81 11.49 132.43 11.49L132.43 11.49Q133.03 11.49 133.50 11.22Q133.98 10.95 134.19 10.41L134.19 10.41L134.46 11.39Q134.22 12.00 133.62 12.34Q133.02 12.68 132.09 12.68ZM140.50 12.68L140.50 12.68Q139.36 12.68 138.74 12.08Q138.11 11.49 138.11 10.34L138.11 10.34L138.11 4.11L139.74 4.11L139.74 10.30Q139.74 10.79 139.99 11.06Q140.24 11.34 140.70 11.34L140.70 11.34Q141.24 11.34 141.61 11.05L141.61 11.05L142.06 12.21Q141.78 12.44 141.36 12.56Q140.95 12.68 140.50 12.68ZM141.60 6.99L136.97 6.99L136.97 5.69L141.60 5.69L141.60 6.99ZM151.07 12.58L149.38 12.58L149.38 8.98L149.76 10.02L145.81 3.48L147.61 3.48L150.79 8.75L149.77 8.75L152.97 3.48L154.63 3.48L150.68 10.02L151.07 8.98L151.07 12.58ZM158.70 12.68L158.70 12.68Q157.64 12.68 156.81 12.21Q155.97 11.75 155.49 10.95Q155.01 10.14 155.01 9.11L155.01 9.11Q155.01 8.07 155.49 7.27Q155.97 6.47 156.81 6.02Q157.64 5.56 158.70 5.56L158.70 5.56Q159.78 5.56 160.62 6.02Q161.46 6.47 161.93 7.27Q162.41 8.06 162.41 9.11L162.41 9.11Q162.41 10.14 161.93 10.95Q161.46 11.75 160.62 12.21Q159.78 12.68 158.70 12.68ZM158.70 11.28L158.70 11.28Q159.30 11.28 159.77 11.02Q160.24 10.76 160.50 10.27Q160.77 9.78 160.77 9.11L160.77 9.11Q160.77 8.44 160.50 7.95Q160.24 7.46 159.77 7.20Q159.30 6.94 158.72 6.94L158.72 6.94Q158.12 6.94 157.66 7.20Q157.20 7.46 156.92 7.95Q156.65 8.44 156.65 9.11L156.65 9.11Q156.65 9.78 156.92 10.27Q157.20 10.76 157.66 11.02Q158.12 11.28 158.70 11.28ZM166.91 12.68L166.91 12.68Q166.02 12.68 165.35 12.34Q164.67 12.01 164.29 11.33Q163.92 10.65 163.92 9.61L163.92 9.61L163.92 5.64L165.54 5.64L165.54 9.39Q165.54 10.32 165.96 10.78Q166.39 11.25 167.17 11.25L167.17 11.25Q167.74 11.25 168.16 11.01Q168.58 10.78 168.82 10.31Q169.06 9.84 169.06 9.15L169.06 9.15L169.06 5.64L170.69 5.64L170.69 12.58L169.14 12.58L169.14 10.71L169.42 11.28Q169.06 11.96 168.39 12.32Q167.71 12.68 166.91 12.68ZM174.45 12.58L172.82 12.58L172.82 5.64L174.37 5.64L174.37 7.55L174.19 6.99Q174.50 6.29 175.17 5.93Q175.84 5.56 176.84 5.56L176.84 5.56L176.84 7.11Q176.73 7.09 176.64 7.08Q176.55 7.07 176.46 7.07L176.46 7.07Q175.54 7.07 174.99 7.61Q174.45 8.15 174.45 9.22L174.45 9.22L174.45 12.58ZM184.85 12.71L184.85 12.71Q183.78 12.71 182.81 12.41Q181.83 12.10 181.26 11.62L181.26 11.62L181.84 10.31Q182.39 10.74 183.20 11.02Q184.00 11.31 184.85 11.31L184.85 11.31Q185.56 11.31 186.00 11.15Q186.45 11.00 186.65 10.73Q186.86 10.47 186.86 10.13L186.86 10.13Q186.86 9.71 186.56 9.46Q186.26 9.20 185.79 9.05Q185.31 8.91 184.74 8.78Q184.16 8.65 183.58 8.47Q183.00 8.29 182.53 8.01Q182.05 7.74 181.75 7.27Q181.45 6.80 181.45 6.07L181.45 6.07Q181.45 5.33 181.85 4.71Q182.25 4.10 183.06 3.72Q183.87 3.35 185.12 3.35L185.12 3.35Q185.94 3.35 186.74 3.56Q187.55 3.77 188.15 4.16L188.15 4.16L187.62 5.47Q187.00 5.11 186.35 4.93Q185.70 4.76 185.11 4.76L185.11 4.76Q184.40 4.76 183.97 4.93Q183.53 5.10 183.33 5.37Q183.13 5.64 183.13 5.99L183.13 5.99Q183.13 6.41 183.42 6.66Q183.72 6.92 184.19 7.06Q184.66 7.20 185.25 7.34Q185.83 7.48 186.41 7.64Q186.99 7.81 187.47 8.09Q187.94 8.36 188.23 8.83Q188.53 9.30 188.53 10.01L188.53 10.01Q188.53 10.74 188.13 11.36Q187.73 11.97 186.91 12.34Q186.09 12.71 184.85 12.71ZM193.31 12.68L193.31 12.68Q192.15 12.68 191.29 12.21Q190.42 11.75 189.95 10.95Q189.47 10.14 189.47 9.11L189.47 9.11Q189.47 8.07 189.94 7.27Q190.40 6.47 191.21 6.02Q192.02 5.56 193.06 5.56L193.06 5.56Q194.08 5.56 194.87 6.01Q195.66 6.45 196.12 7.25Q196.57 8.06 196.57 9.15L196.57 9.15Q196.57 9.26 196.57 9.39Q196.56 9.52 196.55 9.63L196.55 9.63L190.76 9.63L190.76 8.55L195.69 8.55L195.05 8.89Q195.06 8.29 194.80 7.84Q194.54 7.38 194.10 7.12Q193.65 6.86 193.06 6.86L193.06 6.86Q192.46 6.86 192.02 7.12Q191.57 7.38 191.31 7.85Q191.06 8.31 191.06 8.93L191.06 8.93L191.06 9.19Q191.06 9.82 191.35 10.30Q191.63 10.78 192.15 11.04Q192.67 11.30 193.35 11.30L193.35 11.30Q193.93 11.30 194.40 11.12Q194.87 10.93 195.23 10.54L195.23 10.54L196.10 11.54Q195.64 12.09 194.93 12.38Q194.22 12.68 193.31 12.68ZM199.76 12.58L198.13 12.58L198.13 5.64L199.68 5.64L199.68 7.55L199.50 6.99Q199.81 6.29 200.48 5.93Q201.15 5.56 202.15 5.56L202.15 5.56L202.15 7.11Q202.05 7.09 201.95 7.08Q201.86 7.07 201.77 7.07L201.77 7.07Q200.85 7.07 200.30 7.61Q199.76 8.15 199.76 9.22L199.76 9.22L199.76 12.58ZM207.12 12.58L205.44 12.58L202.46 5.64L204.15 5.64L206.71 11.77L205.88 11.77L208.53 5.64L210.09 5.64L207.12 12.58ZM212.73 12.58L211.11 12.58L211.11 5.64L212.73 5.64L212.73 12.58ZM211.93 4.50L211.93 4.50Q211.47 4.50 211.18 4.21Q210.89 3.93 210.89 3.52L210.89 3.52Q210.89 3.11 211.18 2.83Q211.47 2.55 211.93 2.55L211.93 2.55Q212.38 2.55 212.67 2.81Q212.97 3.08 212.97 3.48L212.97 3.48Q212.97 3.91 212.68 4.21Q212.39 4.50 211.93 4.50ZM218.05 12.68L218.05 12.68Q216.96 12.68 216.11 12.21Q215.25 11.75 214.77 10.95Q214.29 10.14 214.29 9.11L214.29 9.11Q214.29 8.07 214.77 7.27Q215.25 6.47 216.11 6.02Q216.96 5.56 218.05 5.56L218.05 5.56Q219.06 5.56 219.84 5.97Q220.61 6.38 221.01 7.18L221.01 7.18L219.77 7.90Q219.45 7.41 219.00 7.18Q218.56 6.94 218.04 6.94L218.04 6.94Q217.44 6.94 216.96 7.20Q216.48 7.46 216.20 7.95Q215.93 8.44 215.93 9.11L215.93 9.11Q215.93 9.79 216.20 10.28Q216.48 10.76 216.96 11.02Q217.44 11.28 218.04 11.28L218.04 11.28Q218.56 11.28 219.00 11.05Q219.45 10.82 219.77 10.32L219.77 10.32L221.01 11.05Q220.61 11.83 219.84 12.25Q219.06 12.68 218.05 12.68ZM225.68 12.68L225.68 12.68Q224.52 12.68 223.66 12.21Q222.79 11.75 222.32 10.95Q221.84 10.14 221.84 9.11L221.84 9.11Q221.84 8.07 222.31 7.27Q222.77 6.47 223.58 6.02Q224.39 5.56 225.43 5.56L225.43 5.56Q226.45 5.56 227.24 6.01Q228.03 6.45 228.49 7.25Q228.94 8.06 228.94 9.15L228.94 9.15Q228.94 9.26 228.94 9.39Q228.93 9.52 228.92 9.63L228.92 9.63L223.13 9.63L223.13 8.55L228.06 8.55L227.42 8.89Q227.44 8.29 227.18 7.84Q226.91 7.38 226.47 7.12Q226.02 6.86 225.43 6.86L225.43 6.86Q224.84 6.86 224.39 7.12Q223.94 7.38 223.68 7.85Q223.43 8.31 223.43 8.93L223.43 8.93L223.43 9.19Q223.43 9.82 223.72 10.30Q224.00 10.78 224.52 11.04Q225.04 11.30 225.72 11.30L225.72 11.30Q226.30 11.30 226.77 11.12Q227.24 10.93 227.60 10.54L227.60 10.54L228.47 11.54Q228.01 12.09 227.30 12.38Q226.59 12.68 225.68 12.68Z" transform="translate(0, 0)"></path></g></svg></g><g transform="rotate(0 0 0)"><svg viewBoxSize="575" data-root-id="6529130789448" xmlns="http://www.w3.org/2000/svg" y="338.5" viewBox="2.9100000858306885 6.340000152587891 69.75 27.81999969482422" x="252.62500030517577" height="27.81999969482422" width="69.75" fontUrl="https://fonts.gstatic.com/s/montserrat/v26/JTUHjIg1_i6t8kCHKm4532VJOt5-QNFgpCuM70w-Y3tcoqK5.ttf" zoom="1" editorType="buyer" data-layer-role="brandName" style="position: absolute; top: 338.5px; width: 69.75px; height: 27.82px; left: 252.625px;"><g data-horizontal-grow="center" zoom="1" root="[object Object]" style="fill: rgb(15, 24, 50); fill-opacity: 1;"><path d="M14.04 33.88L2.91 33.88L2.91 9.38L14.04 9.38Q18.03 9.38 21.07 10.90Q24.12 12.43 25.83 15.16Q27.55 17.89 27.55 21.63L27.55 21.63Q27.55 25.34 25.83 28.09Q24.12 30.84 21.07 32.36Q18.03 33.88 14.04 33.88L14.04 33.88ZM8.58 14.04L8.58 29.23L13.76 29.23Q16.21 29.23 18.01 28.30Q19.81 27.37 20.81 25.66Q21.81 23.94 21.81 21.63L21.81 21.63Q21.81 19.29 20.81 17.59Q19.81 15.89 18.01 14.96Q16.21 14.04 13.76 14.04L13.76 14.04L8.58 14.04ZM40.64 26.22L30.73 26.22L30.73 21.84L40.64 21.84L40.64 26.22ZM61.60 33.88L56.49 33.88L56.49 30.21L56.14 29.40L56.14 22.82Q56.14 21.07 55.07 20.09Q54.01 19.11 51.80 19.11L51.80 19.11Q50.30 19.11 48.84 19.58Q47.39 20.05 46.38 20.86L46.38 20.86L44.41 17.05Q45.95 15.96 48.13 15.37Q50.30 14.77 52.54 14.77L52.54 14.77Q56.84 14.77 59.22 16.80Q61.60 18.83 61.60 23.14L61.60 23.14L61.60 33.88ZM50.75 34.16L50.75 34.16Q48.55 34.16 46.97 33.41Q45.40 32.66 44.55 31.36Q43.72 30.07 43.72 28.46L43.72 28.46Q43.72 26.78 44.54 25.52Q45.36 24.26 47.15 23.54Q48.93 22.82 51.80 22.82L51.80 22.82L56.81 22.82L56.81 26.01L52.40 26.01Q50.47 26.01 49.75 26.64Q49.04 27.27 49.04 28.21L49.04 28.21Q49.04 29.26 49.86 29.87Q50.68 30.49 52.12 30.49L52.12 30.49Q53.48 30.49 54.57 29.84Q55.65 29.19 56.14 27.93L56.14 27.93L56.98 30.45Q56.39 32.27 54.81 33.22Q53.23 34.16 50.75 34.16ZM72.00 33.88L66.53 33.88L66.53 15.05L72.00 15.05L72.00 33.88ZM69.27 12.43L69.27 12.43Q67.76 12.43 66.81 11.55Q65.87 10.68 65.87 9.38L65.87 9.38Q65.87 8.09 66.81 7.21Q67.76 6.34 69.27 6.34L69.27 6.34Q70.77 6.34 71.72 7.16Q72.66 7.98 72.66 9.27L72.66 9.27Q72.66 10.64 71.73 11.53Q70.81 12.43 69.27 12.43Z" transform="translate(0, 0)"></path></g></svg></g></svg>